<svg width="29" height="30" viewBox="0 0 29 30" fill="none" xmlns="http://www.w3.org/2000/svg">
<path fill-rule="evenodd" clip-rule="evenodd" d="M13.74 1.03442L14.5 4.10684L15.26 1.03442H13.74ZM18.63 2.29649L17.2 1.81029L16.8 4.94477L18.63 2.29649ZM11.79 1.81029L10.36 2.29649L12.2 4.94477L11.79 1.81029ZM24.47 14.793L21.45 9.31029C21.16 8.86546 20.76 8.58615 20.33 8.50339C20.1714 8.47384 20.0085 8.47881 19.8518 8.51799C19.6952 8.55718 19.5481 8.62971 19.42 8.73098C19.12 8.96891 18.94 9.26891 18.88 9.59994L18.93 9.67236L21.78 14.8448C23.73 18.5275 23.1 22.0551 19.93 25.3344C19.7541 25.5151 19.5706 25.6877 19.38 25.8517C20.6668 25.6554 21.8513 25.0136 22.74 24.031C26 20.6482 25.78 17.0482 24.47 14.8137V14.793ZM14.58 11.2655C14.42 10.4068 14.68 9.64132 15.28 9.04132L12.78 6.46546C12.28 5.94822 11.4 5.94822 10.9 6.46546C10.72 6.65167 10.63 6.87925 10.57 7.11718L14.58 11.2551V11.2655Z" fill="#575757"/>
<path fill-rule="evenodd" clip-rule="evenodd" d="M17.81 10.3862C17.7108 10.2272 17.5818 10.0904 17.4307 9.98375C17.2796 9.87715 17.1093 9.80294 16.93 9.7655C16.8188 9.74365 16.7043 9.74618 16.5941 9.7729C16.4839 9.79963 16.3803 9.84997 16.29 9.92067C16.11 10.0552 15.58 10.4896 16.05 11.5345L17.48 14.6689C17.5363 14.7265 17.5797 14.796 17.6071 14.8728C17.6345 14.9496 17.6452 15.0316 17.6386 15.1132C17.632 15.1947 17.6081 15.2738 17.5687 15.3447C17.5293 15.4157 17.4753 15.4768 17.4105 15.5238C17.3458 15.5707 17.2718 15.6024 17.1939 15.6166C17.116 15.6307 17.036 15.627 16.9596 15.6056C16.8833 15.5843 16.8124 15.5459 16.752 15.493C16.6915 15.4402 16.6431 15.3743 16.61 15.3L9.2 7.63446C9.10842 7.53779 8.99922 7.46085 8.87871 7.4081C8.7582 7.35536 8.62878 7.32785 8.49793 7.32716C8.36708 7.32648 8.2374 7.35263 8.11639 7.40412C7.99537 7.4556 7.88542 7.5314 7.7929 7.62711C7.70037 7.72283 7.62711 7.83657 7.57734 7.96176C7.52757 8.08695 7.50229 8.2211 7.50295 8.35646C7.50361 8.49182 7.5302 8.6257 7.58119 8.75036C7.63218 8.87503 7.70655 8.988 7.8 9.08274L12.2 13.6345C12.2583 13.6839 12.3059 13.7455 12.3398 13.8151C12.3737 13.8848 12.3931 13.961 12.3968 14.0389C12.4005 14.1168 12.3884 14.1946 12.3612 14.2673C12.3341 14.3401 12.2926 14.4061 12.2393 14.4613C12.186 14.5164 12.1221 14.5594 12.0518 14.5875C11.9814 14.6155 11.9062 14.628 11.8309 14.6242C11.7556 14.6204 11.682 14.6003 11.6146 14.5653C11.5473 14.5302 11.4878 14.4809 11.44 14.4207L7.04 9.86895L5.8 8.58619C5.61435 8.39415 5.36255 8.28626 5.1 8.28626C4.83746 8.28626 4.58566 8.39415 4.4 8.58619C4.30839 8.6804 4.23569 8.79243 4.18608 8.91581C4.13647 9.0392 4.11093 9.17152 4.11093 9.30515C4.11093 9.43879 4.13647 9.5711 4.18608 9.69449C4.23569 9.81788 4.30839 9.9299 4.4 10.0241L5.65 11.3069L10.05 15.8586C10.1502 15.9632 10.2063 16.1045 10.2063 16.2517C10.2063 16.3989 10.1502 16.5402 10.05 16.6448C9.94889 16.7484 9.81232 16.8065 9.67 16.8065C9.52769 16.8065 9.39112 16.7484 9.29 16.6448L4.89 12.0931C4.70308 11.9035 4.45176 11.7974 4.19 11.7974C3.92825 11.7974 3.67693 11.9035 3.49 12.0931C3.39688 12.1875 3.32289 12.3001 3.27238 12.4245C3.22188 12.5488 3.19586 12.6823 3.19586 12.8172C3.19586 12.9521 3.22188 13.0856 3.27238 13.21C3.32289 13.3343 3.39688 13.447 3.49 13.5414L5.35 15.4552L8.11 18.3207C8.19505 18.4279 8.23851 18.564 8.23194 18.7025C8.22536 18.841 8.16922 18.972 8.07443 19.0701C7.97963 19.1681 7.85297 19.2262 7.71908 19.233C7.58518 19.2398 7.45363 19.1949 7.35 19.1069L4.58 16.2414C4.48876 16.145 4.37985 16.0685 4.25965 16.0162C4.13945 15.964 4.01038 15.9371 3.88 15.9371C3.74963 15.9371 3.62056 15.964 3.50036 16.0162C3.38016 16.0685 3.27125 16.145 3.18 16.2414C2.99437 16.4334 2.89008 16.6939 2.89008 16.9655C2.89008 17.2371 2.99437 17.4976 3.18 17.6896L8.51 23.1931C11.88 26.6793 15.15 28.3448 19 24.3517C21.74 21.5172 22.27 18.6207 20.62 15.4965L17.82 10.3862H17.81Z" fill="#575757"/>
</svg>
