<svg width="40" height="32" viewBox="0 0 40 32" fill="none" xmlns="http://www.w3.org/2000/svg">
<path d="M5.25 16.7465C4.96666 16.4532 4.74999 16.1998 4.58333 15.9998C5.65575 14.7607 6.90904 13.6282 8.31666 12.6265C11.4905 10.2503 15.6537 8.90098 20 8.83984C25.0833 8.83984 29 10.7065 31.7 12.6265C33.1075 13.6283 34.3608 14.7608 35.4333 15.9998L34.7667 16.7465C34.0667 17.4665 33.05 18.4265 31.7 19.3732C28.5244 21.7573 24.3543 23.1117 20 23.1732C14.9167 23.1732 11 21.3065 8.29999 19.3732C6.94999 18.4265 5.93333 17.4665 5.25 16.7465V16.7465Z" stroke="#808080" stroke-width="1.25"/>
<path d="M20 20.5067C23.1112 20.5067 25.6333 18.489 25.6333 16.0001C25.6333 13.5111 23.1112 11.4934 20 11.4934C16.8888 11.4934 14.3667 13.5111 14.3667 16.0001C14.3667 18.489 16.8888 20.5067 20 20.5067Z" stroke="#808080" stroke-width="1.25"/>
</svg>
