<svg width="64" height="58" viewBox="0 0 64 58" fill="none" xmlns="http://www.w3.org/2000/svg">
<path d="M0 57.5485L0 0.831055L63.6514 0.831055V57.5485H0ZM15.5673 37.0816C15.5673 37.9891 15.5127 38.1998 14.9853 38.7507L10.5479 43.6122V44.2604H23.2237V43.6122L18.7317 38.7507C18.2043 38.1998 18.1134 37.9405 18.1134 37.0816V22.5781L29.2614 44.228H30.5527L40.1185 22.5781V39.8203C40.1185 40.3064 40.1185 40.3874 39.773 40.6791L36.4086 43.596V44.2442H53.1398V43.596L49.8117 40.6791C49.4844 40.3874 49.448 40.2902 49.448 39.8203V18.5593C49.448 18.0732 49.4844 17.9921 49.8117 17.7004L53.1216 14.7835V14.1353H41.3552L32.9532 32.8521L23.4964 14.1516L11.1299 14.1516V14.7998L15.0399 19.0617C15.4764 19.5478 15.5673 19.6612 15.5673 20.3095L15.5673 37.0816Z" fill="black"/>
</svg>
